<svg width="25" height="25" viewBox="0 0 25 25" fill="none" xmlns="http://www.w3.org/2000/svg">
<g id="book-bold (1) 1">
<g id="Group">
<path id="Vector" fill-rule="evenodd" clip-rule="evenodd" d="M6.94727 2.88495C6.13727 2.99095 5.70927 3.18595 5.40327 3.48495C5.09827 3.78495 4.89927 4.20495 4.79027 4.99795C4.67827 5.81495 4.67627 6.89695 4.67627 8.44795V17.018C5.07197 16.7471 5.51141 16.5465 5.97527 16.4249C6.50327 16.2859 7.11927 16.2859 8.02227 16.2869H20.6763V8.44895C20.6763 6.89695 20.6743 5.81495 20.5623 4.99795C20.4533 4.20495 20.2543 3.78495 19.9493 3.48495C19.6433 3.18595 19.2153 2.99095 18.4053 2.88495C17.5713 2.77495 16.4673 2.77295 14.8833 2.77295H10.4693C8.88527 2.77295 7.78127 2.77495 6.94727 2.88495ZM7.43527 7.36795C7.43527 6.91995 7.80527 6.55695 8.26227 6.55695H17.0903C17.3072 6.55508 17.5161 6.63928 17.6711 6.7911C17.8261 6.94292 17.9146 7.14999 17.9173 7.36695C17.9149 7.58408 17.8265 7.79141 17.6715 7.94344C17.5164 8.09548 17.3074 8.17982 17.0903 8.17795H8.26227C8.0453 8.17982 7.83644 8.09562 7.68143 7.9438C7.52643 7.79198 7.43791 7.58491 7.43527 7.36795ZM8.26227 10.3409C8.0453 10.3391 7.83644 10.4233 7.68143 10.5751C7.52643 10.7269 7.43791 10.934 7.43527 11.1509C7.43527 11.5989 7.80527 11.9619 8.26227 11.9619H13.7793C13.9964 11.9641 14.2055 11.88 14.3608 11.7282C14.516 11.5763 14.6046 11.3691 14.6073 11.1519C14.6049 10.9346 14.5164 10.7272 14.3611 10.5751C14.2058 10.423 13.9966 10.3388 13.7793 10.3409H8.26227Z" fill="#008C27"/>
<path id="Vector_2" d="M8.14905 17.908H20.6761C20.6731 19.038 20.6551 19.882 20.5631 20.548C20.4541 21.341 20.2551 21.761 19.9501 22.061C19.6441 22.36 19.2161 22.555 18.4061 22.661C17.5721 22.771 16.4681 22.773 14.8841 22.773H10.4691C8.88505 22.773 7.78105 22.771 6.94705 22.662C6.13705 22.555 5.70905 22.36 5.40305 22.061C5.09805 21.761 4.89905 21.341 4.79005 20.548C4.74905 20.248 4.72205 19.911 4.70605 19.528C4.84342 19.1536 5.0696 18.8181 5.36519 18.5504C5.66078 18.2827 6.01693 18.0907 6.40305 17.991C6.69305 17.915 7.07005 17.908 8.14905 17.908Z" fill="#008C27"/>
</g>
</g>
</svg>
